<svg width="31" height="31" viewBox="0 0 31 31" fill="none" xmlns="http://www.w3.org/2000/svg">
<g clip-path="url(#clip0_1_1502)">
<g clip-path="url(#clip1_1_1502)">
<path fill-rule="evenodd" clip-rule="evenodd" d="M13.4835 1.54905C13.6836 0.931547 14.2592 0.51416 14.9072 0.51416C15.5552 0.51416 16.1289 0.931547 16.329 1.54905L18.839 9.28309C18.9134 9.50989 19.0582 9.70809 19.2507 9.84913C19.4451 9.99016 19.6795 10.0664 19.9178 10.0664L28.0502 10.0626C28.6982 10.0626 29.2718 10.48 29.472 11.0975C29.6721 11.7131 29.4529 12.3878 28.9288 12.769L22.3497 17.547C22.1553 17.688 22.0104 17.8862 21.9361 18.113C21.8618 18.3417 21.8637 18.5876 21.9361 18.8144L24.4519 26.5466C24.652 27.1641 24.4328 27.8388 23.9087 28.2199C23.3846 28.6011 22.6737 28.6011 22.1495 28.2199L15.5743 23.4381C15.3799 23.297 15.1474 23.2208 14.9072 23.2208C14.6671 23.2208 14.4345 23.297 14.2401 23.4381L7.66297 28.2199C7.13885 28.6011 6.42981 28.6011 5.90569 28.2199C5.37967 27.8388 5.16055 27.1641 5.36257 26.5466L7.87643 18.8144C7.95076 18.5876 7.95076 18.3417 7.87643 18.113C7.804 17.8862 7.65915 17.688 7.46475 17.547L0.885655 12.769C0.361538 12.3878 0.140435 11.7131 0.340553 11.0975C0.542576 10.48 1.11626 10.0626 1.76426 10.0626L9.89474 10.0664C10.1349 10.0664 10.3693 9.99016 10.5618 9.84913C10.7562 9.70809 10.9011 9.50989 10.9735 9.28309L13.4835 1.54905Z" fill="#F6BB06"/>
</g>
</g>
<defs>
<clipPath id="clip0_1_1502">
<rect width="30" height="30" fill="white" transform="translate(0.270142 0.515137)"/>
</clipPath>
<clipPath id="clip1_1_1502">
<rect width="30" height="28.125" fill="white" transform="translate(0.270142 0.515137)"/>
</clipPath>
</defs>
</svg>
