<svg width="111" height="35" viewBox="0 0 111 35" fill="none" xmlns="http://www.w3.org/2000/svg">
<path d="M14.5201 12.3266V16.0335H23.3563C23.0977 18.1025 22.4081 19.6111 21.3305 20.6887C20.0374 21.9818 18.0115 23.4042 14.5201 23.4042C9.08911 23.4042 4.82187 19.0076 4.82187 13.5766C4.82187 8.14558 9.046 3.70592 14.5201 3.70592C17.4512 3.70592 19.6063 4.86971 21.2012 6.33523L23.7874 3.74902C21.5891 1.63695 18.615 -0.000976562 14.5201 -0.000976562C7.06325 -0.000976562 0.770142 6.07661 0.770142 13.5335C0.770142 20.9904 7.06325 27.068 14.5201 27.068C18.5719 27.068 21.5891 25.7318 23.9598 23.2749C26.4167 20.818 27.1495 17.4128 27.1495 14.6111C27.1495 13.749 27.1063 12.9732 26.9339 12.2835H14.5201V12.3266Z" fill="#4285F4"/>
<path d="M38.2271 9.30957C33.3995 9.30957 29.434 12.9734 29.434 18.0596C29.434 23.1027 33.3564 26.8096 38.2271 26.8096C43.0978 26.8096 47.0202 23.1027 47.0202 18.0596C46.9771 12.9734 43.0547 9.30957 38.2271 9.30957ZM38.2271 23.3613C35.5978 23.3613 33.3133 21.163 33.3133 18.0596C33.3133 14.913 35.5978 12.7578 38.2271 12.7578C40.8564 12.7578 43.1409 14.913 43.1409 18.0596C43.1409 21.163 40.8564 23.3613 38.2271 23.3613Z" fill="#EA4335"/>
<path d="M81.2012 11.2492H81.0719C80.2098 10.2147 78.5719 9.30957 76.4598 9.30957C72.1063 9.30957 68.2701 13.1027 68.2701 18.0596C68.2701 22.9734 72.0632 26.8096 76.4598 26.8096C78.5719 26.8096 80.2098 25.8613 81.0719 24.8268H81.2012V26.0337C81.2012 29.3527 79.3908 31.163 76.546 31.163C74.2184 31.163 72.7529 29.482 72.1495 28.0596L68.8305 29.4389C69.7788 31.7665 72.3219 34.6113 76.5891 34.6113C81.0719 34.6113 84.9081 31.982 84.9081 25.5165V9.78371H81.2874V11.2492H81.2012ZM76.8046 23.3613C74.1753 23.3613 72.1495 21.1199 72.1495 18.0596C72.1495 14.9561 74.1753 12.7578 76.8046 12.7578C79.4339 12.7578 81.4598 14.9992 81.4598 18.1027C81.5029 21.1199 79.4339 23.3613 76.8046 23.3613Z" fill="#4285F4"/>
<path d="M57.796 9.30957C52.9684 9.30957 49.0029 12.9734 49.0029 18.0596C49.0029 23.1027 52.9253 26.8096 57.796 26.8096C62.6667 26.8096 66.5891 23.1027 66.5891 18.0596C66.546 12.9734 62.6236 9.30957 57.796 9.30957ZM57.796 23.3613C55.1667 23.3613 52.8822 21.163 52.8822 18.0596C52.8822 14.913 55.1667 12.7578 57.796 12.7578C60.4253 12.7578 62.7098 14.913 62.7098 18.0596C62.7098 21.163 60.4253 23.3613 57.796 23.3613Z" fill="#FBBC05"/>
<path d="M87.8822 0.34375H91.6753V26.7662H87.8822V0.34375Z" fill="#34A853"/>
<path d="M103.313 23.3612C101.374 23.3612 99.9942 22.456 99.0891 20.7318L110.77 15.9043L110.382 14.9129C109.649 12.9732 107.451 9.35254 102.925 9.35254C98.4425 9.35254 94.6925 12.887 94.6925 18.1025C94.6925 23.0163 98.3994 26.8525 103.356 26.8525C107.365 26.8525 109.693 24.3956 110.641 22.9732L107.667 20.9905C106.632 22.3698 105.253 23.3612 103.313 23.3612ZM103.055 12.5853C104.606 12.5853 105.943 13.4043 106.374 14.525L98.4856 17.8008C98.4425 14.0939 101.072 12.5853 103.055 12.5853Z" fill="#EA4335"/>
</svg>
