<svg width="21" height="21" viewBox="0 0 21 21" fill="none" xmlns="http://www.w3.org/2000/svg">
<path d="M17.064 3.84302C15.4272 2.20239 13.2476 1.30005 10.9312 1.30005C6.1499 1.30005 2.25928 5.19067 2.25928 9.97192C2.25928 11.4993 2.65771 12.9915 3.41553 14.3079L2.18506 18.8L6.78271 17.593C8.04834 18.2844 9.47412 18.6477 10.9272 18.6477H10.9312C15.7085 18.6477 19.6851 14.7571 19.6851 9.97583C19.6851 7.65942 18.7007 5.48364 17.064 3.84302ZM10.9312 17.1868C9.63428 17.1868 8.36475 16.8391 7.25928 16.1829L6.99756 16.0266L4.271 16.7415L4.99756 14.0813L4.82568 13.8079C4.10303 12.6594 3.72412 11.3352 3.72412 9.97192C3.72412 5.99927 6.9585 2.76489 10.9351 2.76489C12.8608 2.76489 14.6694 3.51489 16.0288 4.87817C17.3882 6.24146 18.2241 8.05005 18.2202 9.97583C18.2202 13.9524 14.9038 17.1868 10.9312 17.1868ZM14.8843 11.7883C14.6694 11.679 13.603 11.1555 13.4038 11.0852C13.2046 11.011 13.0601 10.9758 12.9155 11.1946C12.771 11.4133 12.3569 11.8977 12.228 12.0461C12.103 12.1907 11.9741 12.2102 11.7593 12.1008C10.4858 11.4641 9.6499 10.9641 8.81006 9.52271C8.5874 9.13989 9.03271 9.16724 9.44678 8.33911C9.51709 8.19458 9.48193 8.06958 9.42725 7.96021C9.37256 7.85083 8.93896 6.78442 8.75928 6.35083C8.5835 5.92896 8.40381 5.98755 8.271 5.97974C8.146 5.97192 8.00146 5.97192 7.85693 5.97192C7.7124 5.97192 7.47803 6.02661 7.27881 6.24146C7.07959 6.46021 6.521 6.98364 6.521 8.05005C6.521 9.11646 7.29834 10.1477 7.40381 10.2922C7.51318 10.4368 8.93115 12.6243 11.1069 13.5657C12.4819 14.1594 13.021 14.2102 13.7085 14.1086C14.1265 14.0461 14.9897 13.5852 15.1694 13.0774C15.3491 12.5696 15.3491 12.136 15.2944 12.0461C15.2437 11.9485 15.0991 11.8938 14.8843 11.7883Z" fill="white"/>
</svg>
